<svg xmlns="http://www.w3.org/2000/svg" viewBox="0 0 40 30">
  <path fill="#2557D6" d="M0 0h40v30H0z"/>
  <path fill="#FFF" d="M22.205 7.91l-2.24 5.5h-3.55l2.2-5.5h3.59zm13.135 11.2v.8h-4.24l-.8-1-.75 1h-5.33v-3.97l-.59.77-.01 3.2h-3.07l-.5-1.23-.5 1.23h-3.49l-.99-1.24V20h-1.86l-.37-.02-1.235-1.5-.7 1.52h-2.3L8.835 20H4.785l-.8-1-.75 1H0v-6.29h3.43l.79.99.73-.99h3.34l.64.89v-.89h3.83l.66 1.27.66-1.27h14.7l.6.81.65-.81h3.49v.79l.33-.79h3.08v4.3zm-3.4-2.86h-1.64v-.89h1.77v-.83h-1.77v-.82h1.96l.85 1.27-.17 1.27zm-4.04 1.78h-1.97v-.76h1.9v-.83h-1.9v-.83l2.38-.01-.01-.82h-3.34V19h3.3l-.36-.87zm-3.33-1.78h-1.23l1.04-1.21.19 1.21zm-3.41 1.78h-1.05v-3.24h-1.5l-1.93 2.12.02-2.12h-3.52l-.68 1.52-.69-1.52h-3.16v3.24h3.03l.68-1.52.7 1.52h1.81v-2.42l1.71 2.42h1.7l.02-2.45 1.14 2.45h1.72v-.02zm-14.3 0h-3.24l-.8-1-.77 1H5.135v-3.24h3.33l.8 1 .77-1h2.05l-.025 3.24zM37 15.61h-1.9l-1.59-1.66v1.66h-3.4l-.66-1-.7 1h-8.17v-3.24h8.27l.67 1 .69-1h3.1l1.4 1.5v-1.5h3.09l1.5 1.68-.3 1.56zm-2.51-1.22h-1.58v-.9h1.72v-.8h-1.72v-.8h1.9l.82 1.24-.14 1.26z"/>
</svg>
