<svg xmlns="http://www.w3.org/2000/svg" viewBox="0 0 780 500">
  <path fill="#4D4D4D" d="M54.992 0h670.016c30.359 0 54.992 24.633 54.992 54.992v390.016c0 30.359-24.633 54.992-54.992 54.992H54.992C24.633 500 0 475.367 0 445.008V54.992C0 24.633 24.633 0 54.992 0z"/>
  <path fill="#FFF" d="M415.13 161.12h-30.576c-7.131 0-13.806 1.406-19.867 5.59v-5.59h-30.39v122.402h30.576V217.95c0-10.785 6.054-17.951 16.425-17.951 9.659 0 15.171 6.24 15.171 17.951v65.572h30.39v-67.352c0-32.74-20.053-38-31.729-38zm-113.676 0l-30.205 75.187-10.693-30.205-9.659-26.839-9.472-26.839h-34.245l31.425 84.846L204.53 283.52h31.054L289.29 161.12h-57.836zm278.253 65.359c0-37.767-26.839-67.745-62.438-67.745-35.654 0-63.121 29.204-63.121 65.744 0 39.814 29.782 64.555 64.712 64.555 19.102 0 36.84-6.426 50.396-23.693l-20.822-15.744c-7.802 7.988-17.01 12.376-28.932 12.376-15.358 0-28.975-10.879-32.06-25.283h90a79.583 79.583 0 002.265-10.21zm-92.248-11.301c4.263-13.02 15.915-21.72 29.954-21.72 13.02 0 25.097 8.143 29.204 21.72h-59.158z"/>
  <path fill="#F47216" d="M581.64 283.52c-35.099 0-63.679-28.361-63.679-63.121 0-34.803 28.58-63.121 63.679-63.121 35.056 0 63.636 28.318 63.636 63.121 0 34.76-28.58 63.121-63.636 63.121z"/>
  <path fill="#FFF" d="M677.73 161.12v122.402h30.576V161.12H677.73zm-390.338 0v122.402h30.576V161.12h-30.576z"/>
</svg>
