<svg xmlns="http://www.w3.org/2000/svg" viewBox="0 0 1000 651">
  <path fill="#2566AF" d="M651.1 0H348.9v.1c-109.3.4-197.9 89.3-197.9 198.8v253.3c0 109.5 88.6 198.4 197.9 198.8H651c109.3-.4 197.9-89.3 197.9-198.8V198.9C849 89.4 760.4.5 651.1.1V0z"/>
  <path fill="#FFF" d="M305.4 427.7l37.8-221.1h60.5l-37.8 221.1h-60.5zm421.7-216.6c-23.9-8.9-61.4-18.7-107.5-18.7-118.4 0-201.7 59.7-202.5 145.2-.6 63.3 59.5 98.6 105 119.7 46.7 21.5 62.4 35.3 62.2 54.5-.4 29.4-37.2 42.9-71.7 42.9-47.9 0-73.3-6.7-112.6-23.1l-15.4-7-16.8 98.2c28 12.3 79.8 22.9 133.7 23.4 126 0 207.8-59 208.9-150.5.5-50.1-31.5-88.2-100.8-119.5-41.9-20.3-67.6-33.9-67.3-54.4.1-18.3 21.6-37.8 68.2-37.8 39-.7 67.2 7.9 89.2 16.8l10.7 5 16.2-94.7M852.1 206.6h-46.9c-14.6 0-25.4 4-31.8 18.4l-90.3 202.7h63.8s10.4-27.5 12.8-33.5c7 0 68.7.1 77.5.1 1.8 8 7.4 33.4 7.4 33.4h56.4l-48.9-221.1zm-80.3 143.5c5-12.8 24.1-62.2 24.1-62.2 -.3.6 5-12.9 8-21.3l4.1 19.1s11.6 52.8 14 64.4h-50.2zm-405.5-143.5l-59.6 152.4-6.4-31.1c-11.1-35.9-45.8-74.7-84.7-94.2l54.8 194h65.2L425 206.6h-58.7z"/>
  <path fill="#EEA124" d="M210.9 206.6H99.2l-1 5.2c87.4 21.2 145.2 72.6 169 134.2l-24.3-117c-4.2-16.2-16.5-21.2-32-22.4z"/>
</svg>
